<svg xmlns="http://www.w3.org/2000/svg" xmlns:xlink="http://www.w3.org/1999/xlink" width="1348.307" height="217" viewBox="0 0 1348.307 217">
  <defs>
    <linearGradient id="linear-gradient" x1="0.334" y1="-13.355" x2="0.635" y2="-12.869" gradientUnits="objectBoundingBox">
      <stop offset="0" stop-color="#9f9cf5"/>
      <stop offset="1" stop-color="#f2a18c"/>
    </linearGradient>
    <linearGradient id="linear-gradient-2" x1="1.11" y1="-23.591" x2="0.209" y2="-24.333" gradientUnits="objectBoundingBox">
      <stop offset="0" stop-color="#cb9fbe"/>
      <stop offset="0.34" stop-color="#b76de1"/>
      <stop offset="1" stop-color="#3950f5"/>
    </linearGradient>
    <linearGradient id="linear-gradient-3" x1="1.062" y1="-11.668" x2="0.266" y2="-11.215" gradientUnits="objectBoundingBox">
      <stop offset="0" stop-color="#3950f5"/>
      <stop offset="1" stop-color="#8a3df2"/>
    </linearGradient>
    <linearGradient id="linear-gradient-4" x1="0.728" y1="22.702" x2="0.08" y2="21.808" gradientUnits="objectBoundingBox">
      <stop offset="0" stop-color="#8ae6fb"/>
      <stop offset="1" stop-color="#9f9bf5"/>
    </linearGradient>
    <linearGradient id="linear-gradient-5" x1="0.875" y1="20.155" x2="0.205" y2="19.356" gradientUnits="objectBoundingBox">
      <stop offset="0" stop-color="#8be2fb"/>
      <stop offset="1" stop-color="#7043f3"/>
    </linearGradient>
  </defs>
  <g id="token-informations" transform="translate(-304.693 -164)">
    <text id="token-name" transform="translate(1091 189)" fill="#fff" font-size="23" font-family="SegoeUI, Segoe UI"><tspan x="0" y="0">Token Abbreviation</tspan><tspan x="0" y="31"></tspan><tspan x="0" y="62">Token Type</tspan><tspan x="0" y="93"></tspan><tspan x="0" y="124">Token Standard</tspan><tspan x="0" y="155"></tspan><tspan x="0" y="186">Total Token Supply</tspan></text>
    <text id="force" transform="translate(1354 189)" fill="#fff" font-size="23" font-family="SegoeUI, Segoe UI"><tspan x="0" y="0">: LORC</tspan><tspan x="0" y="31"></tspan><tspan x="0" y="62">: Utility</tspan><tspan x="0" y="93"></tspan><tspan x="0" y="124">: BEP-20 Binance Smart Chain</tspan><tspan x="0" y="155"></tspan><tspan x="0" y="186">: 300,000,000</tspan></text>
    <g id="my-logo">
      <path id="Path_3567" data-name="Path 3567" d="M136.6,134.965l19.622,34.256c4.989,8.647,10.643,16.3,21.285,18.292a53.236,53.236,0,0,0,7.649,1,136.215,136.215,0,0,0,23.281-.665,29.963,29.963,0,0,0,20.288-12.971c2.661-3.658,5.321-7.649,7.649-11.641a53.052,53.052,0,0,0,3.991-8.98,31.15,31.15,0,0,0,2.328-12.306c0-11.973-11.973-27.937-16.962-37.25l-9.978,17.627c2.993,5.654,10.31,15.3,8.98,22.948-2.328,10.975-11.973,25.277-25.276,25.277-4.989,0-10.31.333-15.3-.333a19.415,19.415,0,0,1-7.317-2.661,19.742,19.742,0,0,1-4.324-5.987l-20.953-35.587Z" transform="translate(224.323 167.57)" fill="url(#linear-gradient)"/>
      <path id="Path_3568" data-name="Path 3568" d="M142.4,108.76c9.645-.333,28.6-2,34.589,3.658s11.308,18.625,15.3,24.611l9.978-17.294c-4.324-7.982-7.649-17.627-15.964-23.281-9.978-6.652-19.622-5.321-33.258-5.654Z" transform="translate(237.812 135.241)" fill="url(#linear-gradient-2)"/>
      <path id="Path_3569" data-name="Path 3569" d="M143.329,179.494c10.975,6.319,30.265,4.989,42.9,5.654l-9.978-17.627c-6.984-.665-21.285-.333-25.942-5.321s-12.306-18.957-12.638-25.609,12.306-27.272,22.948-27.6c4.324,0,9.645-.333,13.969,0l10.31-17.96c-19.29,0-38.247-3.658-51.218,13.636-6.652,8.98-13.969,26.607-13.969,33.591C119.05,149.894,133.352,173.84,143.329,179.494Z" transform="translate(185 135.015)" fill="url(#linear-gradient-3)"/>
      <path id="Path_3570" data-name="Path 3570" d="M228.876,84.447l-11.308,15.632a35.414,35.414,0,0,0-27.272-2c-6.984,2.328-11.64,12.638-14.634,18.292h0l-19.29,33.591a71.442,71.442,0,0,0-4.656,8.647,14.318,14.318,0,0,0,1.33,11.641l8.315,14.966-15.3,8.315-11.64-21.951a15.559,15.559,0,0,1-1.663-8.647,38.169,38.169,0,0,1,5.654-18.292l16.3-27.937c5.321-8.98,13.3-26.274,23.614-32.593,7.649-4.656,13.3-4.324,19.955-4.324C209.919,79.458,219.9,78.461,228.876,84.447Z" transform="translate(215.192 109)" fill="url(#linear-gradient-4)"/>
      <path id="Path_3571" data-name="Path 3571" d="M222.188,141.763l-29.933,52.216a33.565,33.565,0,0,1-26.939,13.969H153.343L142.7,189.656l28.6-.665c1.663-.333,2-1,3.326-2.661a35.806,35.806,0,0,0,5.987-7.982l26.939-47.227c2.661-4.656,3.326-5.654,2.993-10.31a14.7,14.7,0,0,0-2-5.321c-2-3.991-4.656-7.982-6.984-11.973a18.485,18.485,0,0,0-7.317-6.984h0L205.558,80.9a37.36,37.36,0,0,1,6.652,5.987,136.929,136.929,0,0,1,12.971,20.953c.333,1,2.328,5.654,2.993,7.317C230.5,125.134,226.844,133.781,222.188,141.763Z" transform="translate(238.51 112.215)" fill="url(#linear-gradient-5)"/>
    </g>
  </g>
</svg>
